<svg width="28" height="28" viewBox="0 0 28 28" fill="none" xmlns="http://www.w3.org/2000/svg">
<path fill-rule="evenodd" clip-rule="evenodd" d="M23.0417 14.0001C23.0417 13.5168 22.65 13.1251 22.1667 13.1251H5.83337C5.35012 13.1251 4.95837 13.5168 4.95837 14.0001C4.95837 14.4833 5.35012 14.8751 5.83337 14.8751H22.1667C22.65 14.8751 23.0417 14.4833 23.0417 14.0001Z" fill="black"/>
<path fill-rule="evenodd" clip-rule="evenodd" d="M23.0417 8.16675C23.0417 7.6835 22.65 7.29175 22.1667 7.29175H5.83337C5.35012 7.29175 4.95837 7.6835 4.95837 8.16675C4.95837 8.65 5.35012 9.04175 5.83337 9.04175H22.1667C22.65 9.04175 23.0417 8.65 23.0417 8.16675Z" fill="black"/>
<path fill-rule="evenodd" clip-rule="evenodd" d="M23.0417 19.8334C23.0417 19.3502 22.65 18.9584 22.1667 18.9584H5.83337C5.35012 18.9584 4.95837 19.3502 4.95837 19.8334C4.95837 20.3167 5.35012 20.7084 5.83337 20.7084H22.1667C22.65 20.7084 23.0417 20.3167 23.0417 19.8334Z" fill="black"/>
</svg>
