<svg width="28" height="28" viewBox="0 0 28 28" fill="none" xmlns="http://www.w3.org/2000/svg">
<path d="M14 4.08325C8.52322 4.08325 4.08337 8.5231 4.08337 13.9999C4.08337 19.4767 8.52322 23.9166 14 23.9166C19.154 23.9166 23.389 19.9853 23.871 14.9575C23.8935 14.7234 23.7733 14.4988 23.5661 14.3877C23.3589 14.2766 23.1053 14.3007 22.9228 14.4488C21.9199 15.2627 20.6426 15.7499 19.25 15.7499C16.0284 15.7499 13.4167 13.1382 13.4167 9.91659C13.4167 8.00313 14.3374 6.30486 15.7624 5.2402C15.9508 5.09943 16.0363 4.85928 15.9791 4.63113C15.9219 4.40299 15.7334 4.23149 15.5009 4.19617C15.0111 4.12178 14.5099 4.08325 14 4.08325Z" fill="black"/>
</svg>
