<svg width="28" height="28" viewBox="0 0 28 28" fill="none" xmlns="http://www.w3.org/2000/svg">
<path d="M14 1.45825C14.4833 1.45825 14.875 1.85 14.875 2.33325V3.49992C14.875 3.98317 14.4833 4.37492 14 4.37492C13.5168 4.37492 13.125 3.98317 13.125 3.49992V2.33325C13.125 1.85 13.5168 1.45825 14 1.45825Z" fill="black"/>
<path d="M14 7.29159C10.2951 7.29159 7.29171 10.295 7.29171 13.9999C7.29171 17.7048 10.2951 20.7083 14 20.7083C17.705 20.7083 20.7084 17.7048 20.7084 13.9999C20.7084 10.295 17.705 7.29159 14 7.29159Z" fill="black"/>
<path d="M6.3692 5.13165C6.02749 4.78994 5.47347 4.78994 5.13176 5.13165C4.79005 5.47336 4.79005 6.02738 5.13176 6.36909L5.95672 7.19404C6.29843 7.53575 6.85245 7.53575 7.19415 7.19404C7.53586 6.85233 7.53586 6.29831 7.19415 5.95661L6.3692 5.13165Z" fill="black"/>
<path d="M26.5417 13.9999C26.5417 14.4832 26.15 14.8749 25.6667 14.8749H24.5C24.0168 14.8749 23.625 14.4832 23.625 13.9999C23.625 13.5167 24.0168 13.1249 24.5 13.1249H25.6667C26.15 13.1249 26.5417 13.5167 26.5417 13.9999Z" fill="black"/>
<path d="M22.8683 6.36907C23.21 6.02737 23.21 5.47335 22.8683 5.13164C22.5266 4.78993 21.9726 4.78993 21.6309 5.13164L20.8059 5.9566C20.4642 6.2983 20.4642 6.85232 20.8059 7.19403C21.1476 7.53574 21.7016 7.53574 22.0434 7.19403L22.8683 6.36907Z" fill="black"/>
<path d="M14 23.6249C14.4833 23.6249 14.875 24.0167 14.875 24.4999V25.6666C14.875 26.1498 14.4833 26.5416 14 26.5416C13.5168 26.5416 13.125 26.1498 13.125 25.6666V24.4999C13.125 24.0167 13.5168 23.6249 14 23.6249Z" fill="black"/>
<path d="M22.0434 20.8058C21.7017 20.4641 21.1477 20.4641 20.806 20.8058C20.4643 21.1475 20.4643 21.7015 20.806 22.0433L21.631 22.8682C21.9727 23.2099 22.5267 23.2099 22.8684 22.8682C23.2101 22.5265 23.2101 21.9725 22.8684 21.6308L22.0434 20.8058Z" fill="black"/>
<path d="M4.37504 13.9999C4.37504 14.4832 3.98329 14.8749 3.50004 14.8749H2.33337C1.85012 14.8749 1.45837 14.4832 1.45837 13.9999C1.45837 13.5167 1.85012 13.1249 2.33337 13.1249H3.50004C3.98329 13.1249 4.37504 13.5167 4.37504 13.9999Z" fill="black"/>
<path d="M7.19408 22.0432C7.53579 21.7015 7.53579 21.1475 7.19408 20.8058C6.85237 20.4641 6.29835 20.4641 5.95664 20.8058L5.13168 21.6308C4.78997 21.9725 4.78997 22.5265 5.13168 22.8682C5.47339 23.2099 6.02741 23.2099 6.36912 22.8682L7.19408 22.0432Z" fill="black"/>
</svg>
